<?xml version="1.0" encoding="UTF-8"?>
<svg width="24px" height="24px" viewBox="0 0 24 24" version="1.1" xmlns="http://www.w3.org/2000/svg" xmlns:xlink="http://www.w3.org/1999/xlink">
    <title>1_iconography/icon3.0/outlined/travel/flight</title>
    <g id="1_iconography/icon3.0/outlined/travel/flight" stroke="none" stroke-width="1" fill="none" fill-rule="evenodd">
        <rect id="Rectangle" fill-opacity="0" fill="#FFFFFF" x="0" y="0" width="24" height="24"></rect>
        <path d="M11.2234548,21.8115599 L15.9877362,14.1664776 L19.2899172,14.1664776 C19.9887374,14.1664776 20.6737176,13.9384176 21.1692377,13.5408775 C21.6651579,13.1429973 21.938258,12.5957772 21.938258,11.999994 C21.938258,11.4042368 21.6651579,10.8570167 21.1692577,10.4591565 C20.6737176,10.0615764 19.9887374,9.83353635 19.2899172,9.83353635 L14.5804558,9.83327635 C14.4234757,9.83327635 14.3276757,10.0058364 14.4106957,10.1390564 L14.7146958,10.6268766 L15.0963559,11.2393168 C15.1328759,11.2979168 15.1970359,11.3335368 15.266096,11.3335368 L19.2899172,11.3335368 C19.6428773,11.3335368 20.0032974,11.4467968 20.2305775,11.6291569 C20.4382375,11.7957569 20.4382375,11.949497 20.4382375,11.999994 C20.4382375,12.050517 20.4382375,12.2042371 20.2305575,12.3708771 C20.0032974,12.5531972 19.6428773,12.6664772 19.2899172,12.6664772 L15.9877362,12.6664772 L15.1550759,12.6664772 L14.7146958,13.3731374 L10.2733545,20.499994 L9.92491436,20.499994 L12.107095,14.6638778 L12.8146752,12.7714972 L10.7985146,12.6416372 L6.34041329,12.3545171 L5.28117297,12.2862971 L4.86445284,13.2624774 L4.28283267,14.6248578 L3.85805254,14.6248578 L4.42193271,12.3628171 L4.51235274,11.999994 L4.42193271,11.6371969 L3.85805254,9.37515621 L4.28285267,9.37515621 L4.86445284,10.7375366 L5.28117297,11.7137169 L6.34039329,11.6454969 L10.7985146,11.3583968 L12.8146752,11.2285568 L12.107095,9.3361562 L9.92491436,3.499994 L10.2733745,3.499994 L13.5382354,8.73903602 C13.5747555,8.79763604 13.6389355,8.83325605 13.7079755,8.83325605 L15.0040759,8.83325605 C15.1610559,8.83325605 15.256836,8.660696 15.1738159,8.52749596 L11.2234548,2.18843406 C11.1504147,2.07123402 11.0220747,1.999994 10.8839747,1.999994 L8.33923389,1.999994 C8.11013382,1.999994 7.93887377,2.18769406 7.93887377,2.39953412 C7.93887377,2.44579413 7.94705377,2.49323415 7.96457377,2.54009416 L10.7020946,9.86149636 L6.24399326,10.1485964 L5.40311301,8.17885585 C5.32447298,7.9946558 5.14353293,7.87515576 4.94325287,7.87515576 L2.45019212,7.87515576 C2.22391205,7.87515576 2.049992,8.06007582 2.049992,8.27433588 C2.049992,8.30637589 2.053892,8.3390759 2.062072,8.37191591 L2.96645227,11.999994 L2.062072,15.6281181 C2.053892,15.6609581 2.049992,15.6936181 2.049992,15.7256781 C2.049992,15.9399182 2.22393205,16.1248582 2.45019212,16.1248582 L4.94325287,16.1248582 C5.14353293,16.1248582 5.32447298,16.0053582 5.40311301,15.8211581 L6.24399326,13.8514176 L10.7020946,14.1385376 L7.96457377,21.4599198 C7.94705377,21.5067799 7.93887377,21.5541999 7.93887377,21.6004599 C7.93887377,21.8122999 8.11015382,21.999994 8.33923389,21.999994 L10.8839747,21.999994 C11.0220747,21.999994 11.1504147,21.92876 11.2234548,21.8115599" id="Fill-1" fill="#2D2D2D"></path>
    </g>
</svg>