<?xml version="1.0" encoding="UTF-8"?>
<svg width="24px" height="24px" viewBox="0 0 24 24" version="1.1" xmlns="http://www.w3.org/2000/svg" xmlns:xlink="http://www.w3.org/1999/xlink">
    <title>1_iconography/icon3.0/outlined/calendar/calendaradd</title>
    <g id="1_iconography/icon3.0/outlined/calendar/calendaradd" stroke="none" stroke-width="1" fill="none" fill-rule="evenodd">
        <rect id="Rectangle" fill-opacity="0" fill="#FFFFFF" x="0" y="0" width="24" height="24"></rect>
        <path d="M7.91986218,2.999992 C8.03042223,2.999992 8.12004227,3.08959204 8.12004227,3.20011209 L8.12004227,5.0181329 L15.8799457,5.0181329 L15.8799457,3.20011209 C15.8799457,3.08959204 15.9695658,2.999992 16.0801058,2.999992 L17.1810663,2.999992 C17.2916263,2.999992 17.3812464,3.08959204 17.3812464,3.20011209 L17.3812464,5.0181329 L19.0283071,5.0181329 C20.1061876,5.0181329 20.980008,5.89165329 20.980008,6.96919376 L20.980008,19.0489591 C20.980008,20.1264796 20.1061876,20.999992 19.0283071,20.999992 L4.97168087,20.999992 C3.89380039,20.999992 3.02,20.1264796 3.02,19.0489591 L3.02,11.6211158 C3.02,11.5105958 3.10962004,11.4210157 3.22016009,11.4210157 L3.32026013,11.4210157 C3.98358043,11.4210157 4.52130067,11.958556 4.52130067,12.6216563 L4.52130067,19.0489591 C4.52130067,19.2976192 4.72294076,19.4991993 4.97168087,19.4991993 L19.0283071,19.4991993 C19.2770472,19.4991993 19.4787073,19.2976192 19.4787073,19.0489591 L19.4787073,6.96919376 C19.4787073,6.72053365 19.2770472,6.51895356 19.0283071,6.51895356 L17.3812464,6.51895356 L17.3812464,7.02429379 C17.3812464,7.13481384 17.2916263,7.22439388 17.1810663,7.22439388 L16.0801058,7.22439388 C15.9695658,7.22439388 15.8799457,7.13481384 15.8799457,7.02429379 L15.8799457,6.51895356 L8.12004227,6.51895356 L8.12004227,7.02429379 C8.12004227,7.13481384 8.03042223,7.22439388 7.91986218,7.22439388 L6.81892169,7.22439388 C6.70836164,7.22439388 6.6187416,7.13481384 6.6187416,7.02429379 L6.6187416,6.51895356 L4.97168087,6.51895356 C4.72294076,6.51895356 4.52130067,6.72053365 4.52130067,6.96919376 L4.52130067,8.37419439 C4.52130067,8.6228545 4.72294076,8.82443459 4.97168087,8.82443459 L18.4659669,8.82443459 C18.5765269,8.82443459 18.666127,8.91403463 18.666127,9.02455468 L18.666127,9.12459472 C18.666127,9.78769502 18.1284067,10.3252553 17.4650864,10.3252553 L4.22104053,10.3252553 C3.55772024,10.3252553 3.02,9.78769502 3.02,9.12459472 L3.02,6.96919376 C3.02,5.89165329 3.89380039,5.0181329 4.97168087,5.0181329 L6.6187416,5.0181329 L6.6187416,3.20011209 C6.6187416,3.08959204 6.70836164,2.999992 6.81892169,2.999992 L7.91986218,2.999992 Z M12.7538623,11.2200157 L12.7538623,14.1195769 L15.6543636,14.1195769 L15.6543636,15.6203776 L12.7538623,15.6203776 L12.7538623,18.5199389 L11.2525617,18.5199389 L11.2525617,15.6203776 L8.35206037,15.6203776 L8.35206037,14.1195769 L11.2525617,14.1195769 L11.2525617,11.2200157 L12.7538623,11.2200157 Z" id="Shape" fill="#2D2D2D"></path>
    </g>
</svg>