<?xml version="1.0" encoding="UTF-8"?>
<svg width="20px" height="20px" viewBox="0 0 20 20" version="1.1" xmlns="http://www.w3.org/2000/svg" xmlns:xlink="http://www.w3.org/1999/xlink">
    <title>EE89B748-E6F9-4B1B-8330-D7283D3E4FB7</title>
    <g id="Large" stroke="none" stroke-width="1" fill="none" fill-rule="evenodd">
        <g id="navigation" transform="translate(-1309.000000, -6.000000)">
            <g id="Iconography/Alert_circle" transform="translate(1309.000000, 6.000000)">
                <rect id="Rectangle" fill-opacity="0" fill="#FFFFFF" x="0" y="0" width="20" height="20"></rect>
                <path d="M10,2.5 C14.1421356,2.5 17.5,5.85786438 17.5,10 C17.5,14.1421356 14.1421356,17.5 10,17.5 C5.85786438,17.5 2.5,14.1421356 2.5,10 C2.5,5.85786438 5.85786438,2.5 10,2.5 Z M10,3.125 C6.20304235,3.125 3.125,6.20304235 3.125,10 C3.125,13.7969577 6.20304235,16.875 10,16.875 C13.7969577,16.875 16.875,13.7969577 16.875,10 C16.875,6.20304235 13.7969577,3.125 10,3.125 Z M10.5595238,13.0548135 L10.5595238,14.2857143 L9.41666667,14.2857143 L9.41666667,13.0548135 L10.5595238,13.0548135 Z M10.1348908,5.71428571 C10.5521606,5.71428571 10.9167549,5.77046254 11.2307489,5.8806963 C11.5426676,5.99195739 11.8092553,6.14988846 12.025259,6.35444058 C12.240225,6.56003633 12.4046069,6.80168636 12.5141895,7.08043428 C12.6248259,7.36020953 12.6785714,7.66227613 12.6785714,7.99190118 C12.6785714,8.48364813 12.5847477,8.88849631 12.3929823,9.20960922 C12.2001306,9.52863486 11.9746587,9.81690594 11.713324,10.0712589 C11.566841,10.2185906 11.4214443,10.3616662 11.2791928,10.501562 C11.1369414,10.6414578 11.0094437,10.7834734 10.8998611,10.9318487 C10.7902623,11.0802566 10.6996488,11.2381388 10.6301119,11.405593 C10.5616127,11.5741072 10.5268361,11.7606403 10.5268361,11.9662687 L10.5268361,12.1252271 L9.47416906,12.1252271 L9.47416906,11.9408138 C9.47416906,11.6716216 9.5152686,11.4299716 9.59639764,11.2201361 C9.67859672,11.0113605 9.78184007,10.8216313 9.90935403,10.6488936 C10.0357979,10.4771997 10.1780656,10.312909 10.3371784,10.1571467 C10.4962912,10.0023954 10.6490809,9.84554063 10.7955477,9.68868581 C10.9915447,9.50003279 11.1717179,9.28488127 11.3340084,9.04324755 C11.4973366,8.8005539 11.5795356,8.49108402 11.5795356,8.11483792 C11.5953432,7.67075565 11.4794214,7.31466472 11.2307327,7.04333638 C10.9810063,6.77306797 10.6122129,6.63741196 10.1222124,6.63741196 C9.59325235,6.63741196 9.19073624,6.75716887 8.91886318,6.99456283 C8.64384483,7.23197309 8.43836333,7.61351889 8.29927341,8.13918392 L7.32142857,7.97914929 C7.37833563,7.68345863 7.47209447,7.40154719 7.6017161,7.13023515 C7.73239156,6.85890681 7.90834948,6.61940928 8.12858466,6.40954115 C8.34880362,6.20074927 8.62489202,6.03223511 8.95472598,5.90505861 C9.28452751,5.77894206 9.67862915,5.71428571 10.1348908,5.71428571 Z" id="Combined-Shape" fill="#367878"></path>
            </g>
        </g>
    </g>
</svg>