<?xml version="1.0" encoding="UTF-8"?>
<svg width="24px" height="24px" viewBox="0 0 24 24" version="1.1" xmlns="http://www.w3.org/2000/svg" xmlns:xlink="http://www.w3.org/1999/xlink">
    <title>1_iconography/icon3.0/outlined/universal/location</title>
    <g id="1_iconography/icon3.0/outlined/universal/location" stroke="none" stroke-width="1" fill="none" fill-rule="evenodd">
        <rect id="Rectangle" fill-opacity="0" fill="#FFFFFF" x="0" y="0" width="24" height="24"></rect>
        <path d="M9.92428284,9.1205302 C9.92428284,10.2658908 10.8554434,11.1977114 12.000004,11.1977114 C13.1445646,11.1977114 14.0757252,10.2658908 14.0757252,9.1205302 C14.0757252,7.97516956 13.1445646,7.04334904 12.000004,7.04334904 C10.8554434,7.04334904 9.92428284,7.97516956 9.92428284,9.1205302 M12.000004,5.5430082 C13.9744251,5.5430082 15.575006,7.1447091 15.575006,9.1205302 C15.575006,11.0963313 13.9744251,12.6980522 12.000004,12.6980522 C10.0255829,12.6980522 8.425002,11.0963313 8.425002,9.1205302 C8.425002,7.1447091 10.0255829,5.5430082 12.000004,5.5430082 M12.9774845,2.03188624 C16.4638665,2.5088465 19.150008,5.50072818 19.150008,9.1205302 C19.150008,10.619331 18.6893877,12.0104118 17.9022273,13.1599725 L12.4304242,21.7340173 C12.3300242,21.8913373 12.1650041,21.9700174 12.000004,21.9700174 C11.8349839,21.9700174 11.6699638,21.8913373 11.5695638,21.7340173 L6.0977607,13.1599525 C5.31062026,12.0103918 4.85,10.619311 4.85,9.1205302 C4.85,5.50072818 7.5361415,2.5088465 11.0225235,2.03188624 C11.1427635,2.01542623 11.2500036,2.10878628 11.2500036,2.23018635 L11.2500036,2.54724652 C11.2500036,3.07882682 10.9003434,3.54678708 10.3908431,3.69792717 C10.191083,3.7571672 9.99430288,3.82772724 9.80094277,3.90956729 C9.12824239,4.19430745 8.52378206,4.60224767 8.00432176,5.12204796 C7.48490147,5.64184826 7.07726125,6.24674859 6.79272109,6.91990897 C6.49846092,7.61608936 6.34928084,8.35648977 6.34928084,9.1205302 C6.34928084,10.2669908 6.68998103,11.3705515 7.33454139,12.311892 L7.3482814,12.331932 L7.3613414,12.352412 L12.000004,19.6209561 L16.6386666,12.352432 L16.6517266,12.331952 L16.6654666,12.311892 C17.310007,11.3705715 17.6507272,10.2670108 17.6507272,9.1205302 C17.6507272,8.35648977 17.5015271,7.61608936 17.2072669,6.91990897 C16.9227468,6.24674859 16.5151065,5.64184826 15.9956662,5.12204796 C15.4762259,4.60224767 14.8717656,4.19430745 14.1990452,3.90956729 C14.0057051,3.82772724 13.808925,3.7571672 13.6091649,3.69792717 C13.0996646,3.54678708 12.7500044,3.07882682 12.7500044,2.54724652 L12.7500044,2.23018635 C12.7500044,2.10878628 12.8572445,2.01542623 12.9774845,2.03188624" id="Fill-1" fill="#2D2D2D"></path>
    </g>
</svg>