<?xml version="1.0" encoding="UTF-8"?>
<svg width="24px" height="24px" viewBox="0 0 24 24" version="1.1" xmlns="http://www.w3.org/2000/svg" xmlns:xlink="http://www.w3.org/1999/xlink">
    <title>1_iconography/icon3.0/outlined/cargo/manifest_accepted</title>
    <g id="1_iconography/icon3.0/outlined/cargo/manifest_accepted" stroke="none" stroke-width="1" fill="none" fill-rule="evenodd">
        <rect id="Rectangle" x="0" y="0" width="24" height="24"></rect>
        <path d="M13.1744,19.2930434 L11.2997373,15.3399578 L11.2997373,9.12604882 L20.4752905,7.1019259 L20.4752905,16.5817195 L13.1744,19.2930434 Z M5.65774916,17.2826406 L4.158987,14.132936 L9.90475527,15.8990386 L11.3975574,19.0469231 L5.65774916,17.2826406 Z M3.50250606,7.14800597 L9.79973512,9.08362875 L9.79973512,14.2974963 L3.50250606,12.3618735 L3.50250606,7.14800597 Z M13.4302803,4.51198218 L18.3699075,6.03030436 L10.5696962,7.75102684 L5.63008912,6.23272465 L13.4302803,4.51198218 Z M21.4543719,5.40914347 L13.7794808,3.05006007 C13.5921806,2.99249999 13.3919003,2.98439998 13.20022,3.02668004 L2.60656477,5.3636434 C2.26402428,5.43912351 2.01486392,5.73594394 2.0006239,6.08548444 C1.9993439,6.11666448 2,6.14756453 2.0025039,6.17808457 L2.0025039,13.0016544 C2.0025039,13.0611345 2.01574392,13.1198346 2.04130396,13.1735346 L4.51106751,18.3638821 C4.55922758,18.4650623 4.64762771,18.5414224 4.75474786,18.5743424 L12.5347391,20.9657459 C12.6100792,20.9888859 12.6870393,21.0001659 12.7633394,21.0001659 C12.8860596,21.0001659 13.0068597,20.9707859 13.1159199,20.9148658 L21.7145323,17.7216012 C21.8712925,17.6633811 21.9752926,17.5138209 21.9752926,17.3466206 L21.9752926,6.33950481 C21.9888727,6.28718473 21.9971327,6.23286465 21.9993727,6.17718457 C22.0134527,5.82784407 21.7892524,5.51198361 21.4543719,5.40914347 L21.4543719,5.40914347 Z" id="Fill-1" fill="#2D2D2D"></path>
    </g>
</svg>